<?xml version="1.0" standalone="no"?>
<!DOCTYPE svg PUBLIC "-//W3C//DTD SVG 20010904//EN"
 "http://www.w3.org/TR/2001/REC-SVG-20010904/DTD/svg10.dtd">
<svg version="1.0" xmlns="http://www.w3.org/2000/svg"
 width="813.000000pt" height="678.000000pt" viewBox="0 0 813.000000 678.000000"
 preserveAspectRatio="xMidYMid meet">

<g transform="translate(0.000000,678.000000) scale(0.100000,-0.100000)"
fill="#000000" stroke="none">
<path d="M793 6659 c-44 -13 -100 -70 -112 -116 -30 -109 -4 -180 110 -294 83
-82 89 -97 68 -158 -11 -31 -29 -42 -29 -18 0 6 -4 18 -9 26 -7 11 -20 7 -69
-19 -78 -41 -100 -64 -82 -85 32 -38 155 -3 208 60 15 18 43 38 64 44 20 7 48
23 62 36 28 26 27 26 41 -41 8 -43 37 -68 69 -60 15 4 46 32 73 66 51 63 66
65 78 10 15 -68 52 -60 115 25 50 68 75 83 99 61 10 -9 25 -16 34 -16 22 0 21
-8 -4 -74 -34 -91 -5 -101 90 -31 63 46 81 49 81 14 0 -22 -4 -23 -31 -9 -26
15 -24 -2 5 -29 17 -16 25 -37 29 -79 16 -149 46 -216 96 -210 56 6 77 118 38
195 l-15 28 492 0 c505 0 554 -4 629 -42 36 -18 44 -11 26 23 -19 37 -85 79
-155 101 -80 25 -248 23 -524 -7 -220 -23 -494 -31 -519 -16 -11 7 -13 29 -8
105 5 93 11 117 74 286 24 63 28 156 9 192 -18 36 -50 50 -71 33 -30 -25 -75
-232 -75 -350 0 -82 -15 -123 -60 -164 -65 -58 -74 -43 -29 46 27 53 25 88 -3
88 -13 0 -34 -9 -48 -20 -34 -27 -48 -25 -52 7 -3 31 -30 42 -54 22 -9 -7 -28
-38 -44 -69 -16 -31 -35 -62 -44 -69 -13 -11 -17 -9 -26 14 -5 14 -10 36 -10
48 0 32 -15 50 -36 45 -10 -2 -39 -34 -64 -71 -50 -75 -77 -98 -91 -76 -10 15
-7 32 18 146 9 40 14 75 11 79 -17 16 -53 -15 -110 -96 -35 -50 -68 -92 -75
-94 -7 -3 -14 11 -18 37 -9 54 -32 90 -95 152 -70 68 -93 115 -88 177 6 54 30
88 64 88 33 0 46 -30 28 -64 -19 -38 -18 -49 4 -35 22 14 57 64 71 102 21 55
-45 82 -136 56z m984 -161 c-4 -35 -13 -83 -21 -108 l-14 -45 -1 70 c-1 76 14
145 31 145 7 0 9 -20 5 -62z m7 -538 c18 -45 21 -110 6 -110 -13 0 -26 34 -38
99 -12 64 8 71 32 11z"/>
<path d="M6601 6372 c503 -527 780 -1086 875 -1772 24 -174 25 -575 1 -754
-34 -249 -96 -490 -179 -686 -22 -52 -43 -98 -46 -102 -4 -4 -5 68 -4 160 6
268 -27 504 -104 758 -84 280 -239 605 -377 793 -50 69 -183 224 -231 270
l-35 34 35 -89 c229 -585 280 -1188 145 -1740 -108 -441 -336 -850 -649 -1162
-420 -420 -1028 -714 -1706 -827 -249 -41 -364 -49 -681 -49 -456 1 -671 24
-1575 174 -753 125 -1014 157 -1350 167 -225 6 -438 -6 -608 -37 -57 -10 -106
-21 -109 -24 -5 -5 26 -9 267 -32 519 -49 988 -137 1910 -358 582 -139 745
-175 1020 -221 826 -139 1445 -77 2098 210 955 421 1572 1208 1687 2150 9 72
19 153 23 180 l8 50 12 -65 c48 -264 40 -645 -22 -995 -8 -44 -13 -81 -11 -83
1 -1 34 30 73 70 295 304 508 727 601 1193 46 226 55 338 55 640 1 368 -24
585 -100 890 -65 256 -194 520 -322 658 -25 26 -41 47 -37 47 16 0 179 -146
267 -239 175 -184 347 -430 475 -676 41 -77 70 -126 67 -110 -81 390 -242 729
-472 991 -239 272 -612 512 -1060 682 l-52 20 111 -116z"/>
<path d="M1879 6445 c0 -3 -1 -18 -1 -35 0 -16 1 -88 1 -160 l1 -130 40 0 40
0 0 80 c0 47 4 80 10 80 6 0 10 -33 10 -80 l0 -80 40 0 40 0 0 84 c0 58 -4 86
-12 89 -10 4 -10 7 0 18 6 7 12 37 12 66 0 41 -4 54 -19 63 -20 10 -160 15
-162 5z m101 -85 c0 -16 -4 -30 -10 -30 -5 0 -10 14 -10 30 0 17 5 30 10 30 6
0 10 -13 10 -30z"/>
<path d="M2110 6285 l0 -165 40 0 40 0 0 165 0 165 -40 0 -40 0 0 -165z"/>
<path d="M2240 6285 l0 -165 79 0 c108 0 111 5 111 167 0 156 -5 163 -115 163
l-75 0 0 -165z m100 -1 c0 -74 -4 -113 -10 -109 -19 11 -12 225 7 225 2 0 3
-52 3 -116z"/>
<path d="M2470 6285 l0 -165 65 0 c63 0 65 1 65 25 0 14 -4 26 -10 26 -5 1
-16 2 -22 3 -9 1 -14 25 -16 74 -3 70 -2 72 21 72 34 0 33 44 -1 48 -28 4 -24
26 6 30 16 2 22 10 22 28 0 23 -3 24 -65 24 l-65 0 0 -165z"/>
<path d="M2630 6285 l0 -165 45 0 45 0 0 80 c0 47 4 80 10 80 6 0 10 -33 10
-80 l0 -80 40 0 40 0 0 79 c0 59 -4 82 -16 92 -14 11 -14 13 0 21 12 7 16 24
16 64 0 49 -2 55 -26 64 -14 6 -57 10 -95 10 l-69 0 0 -165z m110 75 c0 -16
-4 -30 -10 -30 -5 0 -10 14 -10 30 0 17 5 30 10 30 6 0 10 -13 10 -30z"/>
<path d="M4485 6130 c-66 -14 -127 -39 -162 -66 -34 -26 -83 -109 -83 -142 0
-35 68 -47 274 -47 185 -1 189 -1 207 -24 23 -28 44 -94 36 -114 -8 -21 -90
-46 -186 -57 -92 -10 -208 0 -267 25 -20 8 -38 15 -40 15 -10 0 36 -77 58 -97
40 -37 108 -63 170 -63 48 0 59 -3 68 -21 15 -28 4 -68 -27 -101 -23 -25 -24
-26 -6 -32 11 -3 37 0 59 8 43 15 44 20 30 109 l-7 47 36 0 c38 0 109 31 119
52 17 36 -5 -204 -24 -265 -44 -143 -118 -177 -234 -107 -81 49 -187 149 -218
206 -14 27 -36 94 -49 148 l-22 99 -29 -32 c-16 -18 -28 -43 -28 -59 1 -38 33
-105 62 -128 14 -11 56 -69 93 -129 37 -61 81 -129 96 -152 16 -23 29 -44 29
-46 0 -2 -18 -7 -39 -11 -66 -10 -215 -93 -280 -155 -50 -47 -67 -72 -106
-161 l-46 -105 -82 -49 c-265 -158 -297 -173 -428 -205 -183 -45 -346 -96
-494 -156 -117 -47 -251 -93 -450 -155 -84 -26 -389 -156 -497 -212 -97 -50
-93 -79 5 -44 56 20 45 4 -25 -35 -105 -58 -83 -79 37 -35 36 13 65 22 65 19
0 -2 -5 -13 -11 -25 -18 -34 -2 -32 55 6 65 43 133 75 159 76 10 0 54 34 97
75 88 84 87 87 -34 64 -76 -14 -82 -6 -9 14 273 72 471 120 598 147 83 17 209
46 280 65 l130 35 123 -43 123 -43 -103 -22 c-99 -21 -240 -38 -681 -82 l-209
-20 -104 -94 c-58 -51 -130 -107 -162 -124 l-57 -31 41 -1 c73 0 163 38 224
95 30 29 65 58 77 64 41 21 124 30 508 56 387 26 492 37 529 57 12 6 42 30 67
54 29 27 63 47 90 54 69 17 165 59 227 100 62 40 378 333 364 338 -5 1 -60 -6
-123 -16 l-115 -18 -194 -134 c-107 -74 -221 -154 -253 -178 -32 -24 -60 -43
-62 -41 -6 8 131 241 168 284 20 24 70 65 110 91 45 29 124 98 212 188 105
106 167 160 248 214 59 40 118 72 130 72 34 0 86 -37 93 -66 4 -15 4 -65 1
-113 l-6 -86 33 62 c46 86 88 136 149 176 204 136 483 60 781 -214 58 -52 59
-53 52 -24 -3 17 -23 63 -43 104 -77 159 -234 267 -463 316 -63 14 -125 28
-136 30 -12 3 -47 32 -79 66 -44 48 -55 67 -50 83 49 169 54 214 26 254 -11
15 -25 61 -31 102 -25 152 -76 237 -173 284 -58 29 -149 40 -212 26z"/>
<path d="M6460 5820 c-78 -19 -104 -102 -54 -176 32 -49 45 -59 169 -141 196
-128 398 -313 521 -476 45 -59 46 -61 39 -27 -33 157 -138 407 -229 545 -129
193 -314 308 -446 275z"/>
<path d="M4945 4883 c-34 -76 -56 -220 -54 -351 2 -98 0 -112 -24 -160 -14
-29 -41 -71 -59 -93 l-33 -41 -40 44 c-22 25 -61 81 -87 124 -25 43 -63 97
-82 119 l-36 40 5 -40 c2 -22 7 -66 10 -97 9 -79 43 -126 196 -265 114 -103
143 -137 234 -268 105 -152 155 -212 155 -184 0 8 -9 55 -21 105 -12 55 -22
142 -26 229 -5 125 -3 147 16 202 33 98 30 114 -38 187 -81 87 -86 106 -86
323 0 101 -1 183 -3 183 -1 0 -14 -26 -27 -57z"/>
<path d="M5358 4779 c8 -132 -25 -251 -89 -324 -38 -42 -38 -42 55 -81 l51
-22 22 -218 c12 -129 22 -295 22 -405 1 -179 0 -190 -33 -325 -19 -76 -52
-186 -74 -244 -35 -96 -83 -248 -127 -405 -9 -33 -21 -65 -26 -71 -5 -6 -22
-58 -39 -116 -17 -61 -46 -134 -69 -174 l-40 -69 -7 43 c-4 23 -10 45 -15 47
-4 3 -36 -5 -71 -18 l-63 -24 -23 -79 c-13 -43 -26 -103 -29 -131 -5 -45 -3
-53 11 -53 22 0 50 48 86 150 17 47 37 99 44 115 13 26 15 27 15 8 1 -12 -8
-68 -19 -124 -20 -103 -19 -139 4 -139 25 0 45 36 69 125 13 50 30 103 39 118
14 27 14 24 10 -58 -5 -94 7 -127 33 -92 17 23 43 130 55 229 5 42 17 117 26
167 l17 91 331 0 332 0 52 26 c146 73 247 303 259 590 7 171 -2 220 -97 505
-81 245 -155 431 -240 599 -55 109 -69 123 -317 322 -171 136 -161 133 -155
37z m230 -607 c45 -43 54 -87 57 -290 l3 -184 31 -49 30 -49 -94 0 -95 0 0
284 c0 156 3 291 6 300 9 23 28 20 62 -12z m9 -616 c203 -87 354 -175 411
-241 65 -73 30 -93 -138 -77 -98 10 -439 67 -447 76 -3 2 90 276 94 276 1 0
37 -15 80 -34z"/>
<path d="M4160 3940 c-50 -9 -74 -24 -113 -72 -55 -69 -84 -127 -111 -224 -39
-140 -101 -307 -260 -706 -129 -326 -223 -547 -274 -647 -30 -60 -75 -80 -233
-106 l-143 -23 -220 75 c-483 165 -1014 383 -1753 722 -123 56 -227 99 -233
96 -31 -19 10 -128 87 -228 218 -283 667 -619 1155 -863 460 -230 973 -391
1468 -461 178 -25 663 -25 840 0 261 37 608 122 795 196 l50 19 -46 21 c-69
31 -165 48 -474 87 -153 19 -281 37 -284 40 -3 2 56 4 130 3 148 -2 191 9 197
48 5 35 -34 98 -93 148 -96 82 -201 264 -228 395 -24 114 -51 280 -46 285 10
10 549 -8 549 -19 0 -6 -51 -60 -114 -121 -62 -60 -122 -123 -132 -139 l-18
-29 49 8 c28 4 60 8 72 9 15 2 56 43 128 131 90 111 105 134 105 165 0 20 9
63 20 96 10 32 28 113 39 180 24 146 38 189 104 319 57 115 111 238 121 278 8
32 -10 36 -48 12 -22 -15 -28 -14 -77 9 -161 76 -585 257 -644 275 -80 25 -95
26 -95 5 0 -10 -6 -14 -17 -10 -70 20 -207 34 -253 26z m197 -132 c57 -23 102
-43 100 -44 -2 -2 -32 1 -68 7 -137 22 -248 -13 -286 -91 -52 -108 -184 -452
-181 -472 2 -18 16 -6 78 72 79 101 208 240 222 240 4 0 8 -43 8 -96 l0 -97
-51 -97 c-28 -54 -86 -149 -129 -211 -324 -471 -490 -741 -490 -799 0 -19 11
-71 25 -115 32 -103 32 -139 0 -170 -30 -31 -34 -31 -93 -1 -108 54 -248 90
-472 121 -63 9 -139 23 -169 31 -29 8 -55 13 -58 10 -10 -10 10 -49 53 -102
24 -29 44 -56 44 -59 0 -5 -163 93 -225 135 -22 15 -53 40 -68 56 -25 25 -26
29 -12 43 16 16 15 16 310 -24 129 -17 373 -20 430 -4 61 17 104 55 132 118
14 31 43 94 65 140 50 109 297 726 376 941 33 91 70 204 82 250 35 139 99 230
179 254 57 17 70 15 198 -36z m476 -212 c137 -35 250 -66 252 -68 1 -1 -5 -38
-13 -80 -15 -71 -18 -77 -37 -72 -11 4 -121 33 -244 66 -124 32 -225 59 -226
61 -2 2 17 157 19 157 1 0 113 -29 249 -64z m-823 -940 c-11 -26 -20 -52 -20
-57 0 -12 257 -396 329 -492 28 -37 51 -74 51 -82 0 -8 -12 -18 -26 -21 -37
-10 -151 2 -203 20 -40 15 -46 15 -69 0 -24 -16 -25 -23 -7 -81 7 -22 4 -23
-36 -23 -24 1 -105 13 -179 28 l-135 28 -8 84 c-14 150 8 238 81 322 40 46
171 223 207 280 16 26 31 46 32 44 2 -2 -6 -24 -17 -50z"/>
<path d="M3748 3376 c-63 -50 -104 -99 -112 -136 -6 -25 41 -131 61 -137 5 -2
16 18 25 44 8 27 34 99 56 161 23 61 38 112 34 112 -4 0 -32 -20 -64 -44z"/>
<path d="M1711 3261 c-11 -11 -25 -39 -31 -61 -33 -123 83 -313 278 -453 72
-52 275 -166 295 -167 5 0 -21 34 -57 76 -115 135 -233 332 -292 489 -10 27
-37 68 -59 92 -34 35 -48 43 -78 43 -23 0 -44 -7 -56 -19z"/>
<path d="M594 2976 c14 -101 131 -274 272 -403 567 -516 1382 -948 2146 -1138
182 -45 249 -52 333 -36 38 7 35 8 -60 25 -640 117 -1399 455 -1989 884 -328
240 -580 483 -677 653 l-31 54 6 -39z"/>
<path d="M2447 2949 c-46 -27 -60 -115 -30 -191 34 -89 157 -252 220 -293 l25
-17 -7 129 c-15 267 -30 328 -89 364 -34 21 -91 24 -119 8z"/>
<path d="M4790 2350 c-40 -15 -47 -23 -62 -66 -31 -91 -18 -143 25 -96 18 19
92 171 86 176 -2 1 -24 -5 -49 -14z"/>
<path d="M6305 1049 c-22 -17 -103 -73 -180 -124 -419 -278 -866 -435 -1430
-500 -388 -45 -993 13 -2045 195 -63 11 -124 20 -135 19 -31 0 105 -51 425
-159 688 -230 1106 -312 1590 -313 398 0 691 63 1005 218 217 107 410 250 600
447 100 103 225 249 213 248 -2 0 -21 -14 -43 -31z"/>
</g>
</svg>
